<svg
					
						viewBox="0 0 19 19"
						fill="currentColor"
						xmlns="http://www.w3.org/2000/svg"
					>
						<path
							d="M.7 9.5C.7 4.6 4.7.7 9.5.7c4.8 0 8.8 4 8.8 8.8 0 2.6-1.1 5-3 6.6-.1-.1-.2-.1-.3-.2l-2.9-1.5c-.3-.1-.4-.4-.4-.7v-1c.1-.1.1-.2.2-.3.4-.5.7-1.1.9-1.8.4-.2.7-.6.7-1.1V8.3c0-.3-.1-.6-.3-.8V5.9c0-.2.1-1.2-.7-2-.6-.7-1.7-1.1-3.1-1.1-1.4 0-2.3.3-3 1.1-.7.8-.7 1.8-.7 2v1.6c-.1.2-.2.5-.2.8v1.2c0 .4.2.7.5 1 .3 1.1.9 1.9 1.1 2.2v1c0 .3-.2.5-.4.7L4 15.9c-.1 0-.2.1-.3.2-1.9-1.7-3-4-3-6.6Zm18.3 0C19 4.3 14.7 0 9.5 0S0 4.3 0 9.5c0 2.8 1.2 5.3 3.1 7l.3.3h.1c.2.1.3.3.5.4.1 0 .1.1.2.1.2.1.4.2.6.4 0 0 .1 0 .1.1.1.1.3.2.6.3.7.3 1.5.6 2.3.7h.1c.2 0 .5.1.8.1H10.5c.3 0 .5-.1.8-.1h.1c.8-.1 1.6-.4 2.3-.7h.1l.6-.3c.1 0 .1-.1.2-.1.2-.1.4-.2.5-.3.1 0 .1-.1.2-.1.2-.1.3-.2.4-.3 0 0 .1 0 .1-.1l.3-.3c1.7-1.8 2.9-4.3 2.9-7.1Z"
						></path>
					</svg>