<svg style="enable-background:new 0 0 529.948 529.947" xml:space="preserve"  viewBox="0 0 530 530" xmlns="http://www.w3.org/2000/svg"><path d="M405.419 165.641V58.771H160.643v111.433l-8.251-14.295L0 419.859h260.975c29.303 32.634 71.032 51.317 114.736 51.317 85.051 0 154.236-69.191 154.236-154.235.012-73.922-52.215-137.15-124.528-151.3zm-253.028 27.005 8.251 14.287v96.615h55.78l5.21 9.031-.042.898a67.22 67.22 0 0 0-.115 3.452c0 30.274 8.742 59.385 25.343 84.565h-215l120.573-208.848zM387.048 77.139v208.038H179.01V77.139h208.038zm-11.337 375.668c-74.912 0-135.864-60.952-135.864-135.865 0-1.844.104-3.659.192-5.479l.033-.573 1.034-1.312-.884-1.549c.104-1.501.23-2.99.381-4.479h164.816V184.398c61.731 13.811 106.157 68.97 106.157 132.543.012 74.913-60.939 135.866-135.865 135.866z" fill="currentColor"/></svg>
