<svg fill="none" width="16" height="24" viewBox="0 0 16 24" xmlns="http://www.w3.org/2000/svg"><path d="M10 .188c.928 0 1.781.86 1.781 1.593 0 .734-.531 1.532-.531 1.532S13.84 5.538 14.5 7.5c.713 2.118-.219 5.719-.219 5.719.87.133 1.531.874 1.531 1.781A1.812 1.812 0 0 1 14 16.813a1.775 1.775 0 0 1-1.688-1.22S10.706 17.233 9.5 17c-1.085-.21-2.031-1.969-2.031-1.969A1.808 1.808 0 0 1 6 15.812s-1.45.826-2 1.688c-.725 1.137-.563 3.406-.563 3.406.235.306.376.679.376 1.094A1.812 1.812 0 1 1 2 20.187s-.052-2.072.5-3.187c.557-1.125 2.063-1.938 2.063-1.938A1.756 1.756 0 0 1 4.188 14c0-1.001.81-1.813 1.812-1.813.809 0 1.485.52 1.719 1.25 0 0 .757 1.771 1.781 2.063 1.26.36 3-1.5 3-1.5.081-.12.174-.246.281-.344 0 0 .914-3.558.219-5.656-.654-1.974-3.25-4.219-3.25-4.219A1.795 1.795 0 0 1 8.187 2 1.814 1.814 0 0 1 10 .188Z" fill="currentColor"/></svg>
