<svg fill="none" viewBox="0 0 66 73" xmlns="http://www.w3.org/2000/svg"><path d="M61.199 52.783S62.972 40.74 61 33.5c-1.972-7.24-9.9-17.797-9.9-17.797A6.015 6.015 0 0 0 55.2 10.01a6.012 6.012 0 0 0-6.006-6.006A6.015 6.015 0 0 0 43.5 8.102S34.209 10.239 28 9.5c-6.209-.74-16.298-5.184-16.298-5.184A6.015 6.015 0 0 0 6.009.218 6.012 6.012 0 0 0 .003 6.224 6.015 6.015 0 0 0 4.1 11.917S7.257 25.278 7.5 34c.297 10.655-3.4 18.954-3.4 27.083a6.015 6.015 0 0 0-4.097 5.693 6.012 6.012 0 0 0 6.006 6.006 6.015 6.015 0 0 0 5.693-4.098S26 61.917 28 60c2-1.917 10.58-3.583 12-2.5 1.42 1.083 13.598 2.884 13.598 2.884a6.015 6.015 0 0 0 5.693 4.098 6.012 6.012 0 0 0 6.006-6.006 6.015 6.015 0 0 0-4.098-5.693Zm-7.6 3.785C48.763 57.526 40.058 50.801 35 52c-1.879.445-6.823 1.831-7.5 2.5-2.5 2.47-15.798 10.368-15.798 10.368S9 62 7.916 61.083C6.833 60.165 12.5 42.353 12.5 34c0-6.682-5.167-22.083-4.584-22.083.584 0 3.188-2.006 3.786-3.785L27.5 13l16-1.083a6.032 6.032 0 0 0 3.785 3.786S53.227 26.26 55.2 33.5c1.972 7.24 2.185 19.283 2.185 19.283a6.032 6.032 0 0 0-3.786 3.785Z" fill="currentColor"/></svg>
