<svg width="66" height="73" viewBox="0 0 66 73" fill="none" xmlns="http://www.w3.org/2000/svg"><path d="m61.199 52.783-10.098-37.08a6.015 6.015 0 0 0 4.098-5.693 6.012 6.012 0 0 0-6.006-6.006A6.015 6.015 0 0 0 43.5 8.102L11.702 4.316A6.015 6.015 0 0 0 6.009.218 6.012 6.012 0 0 0 .003 6.224 6.015 6.015 0 0 0 4.1 11.917v49.166a6.015 6.015 0 0 0-4.098 5.693 6.012 6.012 0 0 0 6.006 6.006 6.015 6.015 0 0 0 5.693-4.098l41.896-8.3a6.015 6.015 0 0 0 5.693 4.098 6.012 6.012 0 0 0 6.006-6.006 6.015 6.015 0 0 0-4.098-5.693Zm-7.6 3.785-41.897 8.3a6.032 6.032 0 0 0-3.786-3.785V11.917a6.032 6.032 0 0 0 3.786-3.785L43.5 11.917a6.032 6.032 0 0 0 3.785 3.786l10.099 37.08a6.032 6.032 0 0 0-3.786 3.785Z" fill="currentColor"/></svg>
