<svg width="16" height="24" viewBox="0 0 16 24" fill="none" xmlns="http://www.w3.org/2000/svg"><path d="M10 .188c.928 0 1.781.86 1.781 1.593 0 .734-.531 1.532-.531 1.532l3.031 9.906c.87.133 1.531.874 1.531 1.781A1.812 1.812 0 0 1 14 16.813a1.775 1.775 0 0 1-1.688-1.22l-4.843-.562A1.808 1.808 0 0 1 6 15.812l-2.563 5.094c.235.306.376.679.376 1.094A1.812 1.812 0 1 1 2 20.187l2.563-5.125A1.756 1.756 0 0 1 4.188 14c0-1.001.81-1.813 1.812-1.813.809 0 1.485.52 1.719 1.25L12.5 14c.081-.12.174-.246.281-.344L9.75 3.781A1.795 1.795 0 0 1 8.187 2C8.188.999 9 .187 10 .187Z" fill="currentColor"/></svg>
